<mxfile host="app.diagrams.net" modified="2023-12-16T22:35:33.786Z" agent="Mozilla/5.0 (X11; Linux x86_64) AppleWebKit/537.36 (KHTML, like Gecko) Chrome/120.0.0.0 Safari/537.36" etag="AOlDvA6EabLvBGENdu6i" version="22.1.11" type="device">
  <diagram name="Page-1" id="16e2658f-23c8-b752-8be9-c03fbebb8bbe">
    <mxGraphModel dx="1004" dy="1411" grid="1" gridSize="10" guides="1" tooltips="1" connect="1" arrows="1" fold="1" page="1" pageScale="1" pageWidth="1100" pageHeight="850" background="none" math="0" shadow="0">
      <root>
        <mxCell id="0" />
        <mxCell id="1" parent="0" />
        <mxCell id="wxNA1FvCwZTy_0BhAFAa-1" value="" style="pointerEvents=1;verticalLabelPosition=bottom;shadow=0;dashed=0;align=center;html=1;verticalAlign=top;shape=mxgraph.electrical.resistors.resistor_1;" vertex="1" parent="1">
          <mxGeometry x="290" y="510" width="100" height="20" as="geometry" />
        </mxCell>
        <mxCell id="wxNA1FvCwZTy_0BhAFAa-9" style="edgeStyle=orthogonalEdgeStyle;rounded=0;orthogonalLoop=1;jettySize=auto;html=1;exitX=0;exitY=0.5;exitDx=0;exitDy=0;exitPerimeter=0;endArrow=oval;endFill=1;" edge="1" parent="1" source="wxNA1FvCwZTy_0BhAFAa-2">
          <mxGeometry relative="1" as="geometry">
            <mxPoint x="460" y="520" as="targetPoint" />
          </mxGeometry>
        </mxCell>
        <mxCell id="wxNA1FvCwZTy_0BhAFAa-2" value="" style="pointerEvents=1;verticalLabelPosition=bottom;shadow=0;dashed=0;align=center;html=1;verticalAlign=top;shape=mxgraph.electrical.resistors.resistor_1;" vertex="1" parent="1">
          <mxGeometry x="540" y="510" width="100" height="20" as="geometry" />
        </mxCell>
        <mxCell id="wxNA1FvCwZTy_0BhAFAa-3" value="" style="pointerEvents=1;verticalLabelPosition=bottom;shadow=0;dashed=0;align=center;html=1;verticalAlign=top;shape=mxgraph.electrical.capacitors.capacitor_1;" vertex="1" parent="1">
          <mxGeometry x="70" y="490" width="100" height="60" as="geometry" />
        </mxCell>
        <mxCell id="wxNA1FvCwZTy_0BhAFAa-14" style="edgeStyle=orthogonalEdgeStyle;rounded=0;orthogonalLoop=1;jettySize=auto;html=1;exitX=0.5;exitY=1;exitDx=0;exitDy=0;exitPerimeter=0;endArrow=oval;endFill=1;" edge="1" parent="1" source="wxNA1FvCwZTy_0BhAFAa-4">
          <mxGeometry relative="1" as="geometry">
            <mxPoint x="460" y="740" as="targetPoint" />
            <Array as="points">
              <mxPoint x="30" y="740" />
            </Array>
          </mxGeometry>
        </mxCell>
        <mxCell id="wxNA1FvCwZTy_0BhAFAa-4" value="" style="pointerEvents=1;verticalLabelPosition=bottom;shadow=0;dashed=0;align=center;html=1;verticalAlign=top;shape=mxgraph.electrical.signal_sources.source;aspect=fixed;points=[[0.5,0,0],[1,0.5,0],[0.5,1,0],[0,0.5,0]];elSignalType=ac;" vertex="1" parent="1">
          <mxGeometry y="660" width="60" height="60" as="geometry" />
        </mxCell>
        <mxCell id="wxNA1FvCwZTy_0BhAFAa-5" value="" style="pointerEvents=1;verticalLabelPosition=bottom;shadow=0;dashed=0;align=center;html=1;verticalAlign=top;shape=mxgraph.electrical.signal_sources.source;aspect=fixed;points=[[0.5,0,0],[1,0.5,0],[0.5,1,0],[0,0.5,0]];elSignalType=ac;" vertex="1" parent="1">
          <mxGeometry x="650" y="660" width="60" height="60" as="geometry" />
        </mxCell>
        <mxCell id="wxNA1FvCwZTy_0BhAFAa-6" value="" style="pointerEvents=1;verticalLabelPosition=bottom;shadow=0;dashed=0;align=center;html=1;verticalAlign=top;shape=mxgraph.electrical.resistors.resistor_2;rotation=90;" vertex="1" parent="1">
          <mxGeometry x="410" y="630" width="100" height="20" as="geometry" />
        </mxCell>
        <mxCell id="wxNA1FvCwZTy_0BhAFAa-7" style="edgeStyle=orthogonalEdgeStyle;rounded=0;orthogonalLoop=1;jettySize=auto;html=1;exitX=0;exitY=0.5;exitDx=0;exitDy=0;exitPerimeter=0;entryX=1;entryY=0.5;entryDx=0;entryDy=0;entryPerimeter=0;endArrow=none;endFill=0;" edge="1" parent="1" source="wxNA1FvCwZTy_0BhAFAa-1" target="wxNA1FvCwZTy_0BhAFAa-3">
          <mxGeometry relative="1" as="geometry" />
        </mxCell>
        <mxCell id="wxNA1FvCwZTy_0BhAFAa-8" style="edgeStyle=orthogonalEdgeStyle;rounded=0;orthogonalLoop=1;jettySize=auto;html=1;exitX=1;exitY=0.5;exitDx=0;exitDy=0;exitPerimeter=0;entryX=0;entryY=0.5;entryDx=0;entryDy=0;entryPerimeter=0;endArrow=none;endFill=0;" edge="1" parent="1" source="wxNA1FvCwZTy_0BhAFAa-1" target="wxNA1FvCwZTy_0BhAFAa-6">
          <mxGeometry relative="1" as="geometry" />
        </mxCell>
        <mxCell id="wxNA1FvCwZTy_0BhAFAa-10" style="edgeStyle=orthogonalEdgeStyle;rounded=0;orthogonalLoop=1;jettySize=auto;html=1;exitX=1;exitY=0.5;exitDx=0;exitDy=0;exitPerimeter=0;entryX=0.5;entryY=0;entryDx=0;entryDy=0;entryPerimeter=0;endArrow=none;endFill=0;" edge="1" parent="1" source="wxNA1FvCwZTy_0BhAFAa-2" target="wxNA1FvCwZTy_0BhAFAa-5">
          <mxGeometry relative="1" as="geometry" />
        </mxCell>
        <mxCell id="wxNA1FvCwZTy_0BhAFAa-11" value="" style="pointerEvents=1;verticalLabelPosition=bottom;shadow=0;dashed=0;align=center;html=1;verticalAlign=top;shape=mxgraph.electrical.capacitors.capacitor_1;" vertex="1" parent="1">
          <mxGeometry x="520" y="710" width="100" height="60" as="geometry" />
        </mxCell>
        <mxCell id="wxNA1FvCwZTy_0BhAFAa-12" style="edgeStyle=orthogonalEdgeStyle;rounded=0;orthogonalLoop=1;jettySize=auto;html=1;exitX=0.5;exitY=1;exitDx=0;exitDy=0;exitPerimeter=0;entryX=1;entryY=0.5;entryDx=0;entryDy=0;entryPerimeter=0;endArrow=none;endFill=0;" edge="1" parent="1" source="wxNA1FvCwZTy_0BhAFAa-5" target="wxNA1FvCwZTy_0BhAFAa-11">
          <mxGeometry relative="1" as="geometry" />
        </mxCell>
        <mxCell id="wxNA1FvCwZTy_0BhAFAa-13" style="edgeStyle=orthogonalEdgeStyle;rounded=0;orthogonalLoop=1;jettySize=auto;html=1;exitX=0;exitY=0.5;exitDx=0;exitDy=0;exitPerimeter=0;entryX=1;entryY=0.5;entryDx=0;entryDy=0;entryPerimeter=0;endArrow=none;endFill=0;" edge="1" parent="1" source="wxNA1FvCwZTy_0BhAFAa-11" target="wxNA1FvCwZTy_0BhAFAa-6">
          <mxGeometry relative="1" as="geometry" />
        </mxCell>
        <mxCell id="wxNA1FvCwZTy_0BhAFAa-15" style="edgeStyle=orthogonalEdgeStyle;rounded=0;orthogonalLoop=1;jettySize=auto;html=1;exitX=0.5;exitY=0;exitDx=0;exitDy=0;exitPerimeter=0;entryX=0;entryY=0.5;entryDx=0;entryDy=0;entryPerimeter=0;endArrow=none;endFill=0;" edge="1" parent="1" source="wxNA1FvCwZTy_0BhAFAa-4" target="wxNA1FvCwZTy_0BhAFAa-3">
          <mxGeometry relative="1" as="geometry" />
        </mxCell>
        <mxCell id="wxNA1FvCwZTy_0BhAFAa-17" style="edgeStyle=orthogonalEdgeStyle;rounded=0;orthogonalLoop=1;jettySize=auto;html=1;exitX=0;exitY=0.5;exitDx=0;exitDy=0;exitPerimeter=0;endArrow=oval;endFill=1;" edge="1" parent="1" source="wxNA1FvCwZTy_0BhAFAa-16">
          <mxGeometry relative="1" as="geometry">
            <mxPoint x="30" y="520.0000000000002" as="targetPoint" />
          </mxGeometry>
        </mxCell>
        <mxCell id="wxNA1FvCwZTy_0BhAFAa-18" style="edgeStyle=orthogonalEdgeStyle;rounded=0;orthogonalLoop=1;jettySize=auto;html=1;exitX=1;exitY=0.5;exitDx=0;exitDy=0;exitPerimeter=0;endArrow=oval;endFill=1;" edge="1" parent="1" source="wxNA1FvCwZTy_0BhAFAa-16">
          <mxGeometry relative="1" as="geometry">
            <mxPoint x="680" y="520.0000000000002" as="targetPoint" />
          </mxGeometry>
        </mxCell>
        <mxCell id="wxNA1FvCwZTy_0BhAFAa-16" value="" style="pointerEvents=1;verticalLabelPosition=bottom;shadow=0;dashed=0;align=center;html=1;verticalAlign=top;shape=mxgraph.electrical.resistors.resistor_2;" vertex="1" parent="1">
          <mxGeometry x="190" y="320" width="100" height="20" as="geometry" />
        </mxCell>
      </root>
    </mxGraphModel>
  </diagram>
</mxfile>
